<svg id="svg" version="1.1"
    xmlns="http://www.w3.org/2000/svg"
    xmlns:xlink="http://www.w3.org/1999/xlink" width="400" height="138.46153846153845" viewBox="0, 0, 400,138.46153846153845">
    <g id="svgg">
        <path id="path0" d="M269.000 46.813 C 264.365 47.836,264.001 54.834,268.501 56.401 C 272.676 57.855,276.315 54.344,275.070 50.063 C 274.356 47.605,271.745 46.207,269.000 46.813 M341.333 53.003 C 339.232 53.279,336.730 53.859,335.583 54.335 C 327.339 57.756,323.570 64.035,324.302 73.129 C 325.275 85.214,334.800 91.381,349.083 89.173 C 352.661 88.620,353.998 88.307,356.376 87.465 L 357.336 87.125 357.293 77.188 L 357.250 67.250 349.083 67.250 L 340.917 67.250 340.872 71.205 L 340.827 75.161 344.705 75.205 L 348.583 75.250 348.583 78.083 L 348.583 80.917 346.083 81.128 C 337.021 81.892,332.833 78.793,332.833 71.321 C 332.833 67.015,334.369 63.993,337.261 62.610 C 337.805 62.350,338.374 62.072,338.526 61.994 C 339.703 61.382,345.495 60.984,348.250 61.326 C 350.271 61.577,351.899 61.838,352.417 61.994 C 352.692 62.077,353.367 62.266,353.917 62.414 C 354.467 62.562,355.048 62.725,355.208 62.777 C 355.481 62.866,355.500 62.587,355.500 58.461 L 355.500 54.050 354.292 53.777 C 350.726 52.974,344.419 52.597,341.333 53.003 M128.000 71.083 L 128.000 89.167 132.333 89.167 L 136.667 89.167 136.667 80.740 C 136.667 75.174,136.723 72.349,136.833 72.416 C 136.991 72.514,142.643 80.032,144.757 82.957 C 145.303 83.712,146.559 85.418,147.547 86.748 L 149.344 89.167 154.673 89.167 L 160.003 89.167 158.808 87.542 C 158.151 86.648,157.457 85.721,157.265 85.482 C 157.073 85.242,156.804 84.879,156.667 84.675 C 156.529 84.471,155.592 83.227,154.583 81.910 C 150.196 76.180,149.861 75.667,150.504 75.667 C 151.127 75.667,154.068 73.299,155.034 72.019 C 160.434 64.867,156.256 54.888,147.205 53.320 C 145.620 53.046,144.428 53.010,136.708 53.005 L 128.000 53.000 128.000 71.083 M174.417 59.659 C 167.825 60.750,163.455 64.663,162.003 70.776 C 161.388 73.366,161.641 78.219,162.489 80.083 C 162.572 80.267,162.834 80.857,163.071 81.396 C 166.151 88.406,174.463 91.016,186.193 88.657 C 187.078 88.479,187.847 88.333,187.901 88.333 C 187.956 88.333,188.000 86.510,188.000 84.281 L 188.000 80.229 186.792 80.452 C 178.375 82.001,171.680 80.851,170.894 77.721 C 170.749 77.140,170.813 77.133,172.092 77.588 C 179.421 80.193,188.283 77.149,190.023 71.429 C 192.176 64.350,183.880 58.092,174.417 59.659 M208.000 59.605 C 207.219 59.703,204.668 60.305,204.250 60.490 C 198.815 62.895,196.229 66.030,195.166 71.500 C 195.085 71.912,195.015 78.756,195.010 86.708 L 195.000 101.167 199.333 101.167 L 203.667 101.167 203.667 93.833 C 203.667 89.800,203.713 86.500,203.769 86.500 C 203.825 86.500,204.220 86.793,204.647 87.150 C 209.168 90.935,217.138 90.045,221.876 85.226 C 225.416 81.626,226.898 76.370,225.842 71.167 C 224.238 63.266,216.872 58.493,208.000 59.605 M242.083 59.604 C 241.265 59.729,238.776 60.331,238.417 60.491 C 238.233 60.573,237.660 60.826,237.143 61.053 C 228.715 64.750,226.188 75.981,232.013 83.849 C 233.687 86.110,235.379 87.364,238.750 88.839 C 242.870 90.643,249.610 88.886,251.619 85.484 C 252.090 84.687,252.302 84.755,252.597 85.798 C 252.746 86.322,253.057 87.294,253.288 87.958 L 253.710 89.167 258.022 89.167 C 260.393 89.167,262.333 89.139,262.333 89.104 C 262.333 89.070,262.215 88.714,262.071 88.313 C 260.750 84.643,260.180 80.986,260.171 76.132 C 260.155 67.488,256.451 62.008,249.310 60.060 C 247.775 59.642,243.575 59.376,242.083 59.604 M294.667 59.617 C 289.379 60.193,284.552 63.432,282.581 67.729 C 281.251 70.627,281.278 70.381,281.208 80.292 L 281.146 89.167 285.489 89.167 L 289.833 89.167 289.835 81.625 C 289.836 72.176,289.958 71.364,291.611 69.819 C 293.162 68.368,294.578 67.925,297.625 67.937 L 299.833 67.946 299.833 63.829 L 299.833 59.712 299.060 59.606 C 298.267 59.497,295.707 59.504,294.667 59.617 M266.000 74.417 L 266.000 89.167 270.333 89.167 L 274.667 89.167 274.667 74.417 L 274.667 59.667 270.333 59.667 L 266.000 59.667 266.000 74.417 M146.851 61.561 C 150.206 62.817,150.407 68.006,147.167 69.693 C 146.430 70.076,146.328 70.083,141.583 70.083 L 136.750 70.083 136.705 65.836 C 136.681 63.500,136.700 61.488,136.747 61.364 C 136.888 60.997,145.810 61.171,146.851 61.561 M213.073 67.865 C 217.103 68.877,218.897 74.906,216.312 78.750 C 213.634 82.731,206.435 82.380,204.368 78.167 L 203.755 76.917 203.753 74.485 L 203.750 72.053 204.401 70.770 C 205.798 68.018,209.177 66.886,213.073 67.865 M245.891 67.672 C 250.755 68.229,253.143 74.417,250.259 78.986 C 248.180 82.279,241.353 82.319,238.956 79.053 C 235.801 74.755,238.178 68.187,243.076 67.669 C 243.722 67.601,244.287 67.536,244.333 67.524 C 244.379 67.512,245.080 67.579,245.891 67.672 M179.822 68.096 C 181.960 68.730,182.131 70.391,180.167 71.439 C 178.796 72.170,171.333 71.661,171.333 70.836 C 171.333 68.898,176.695 67.167,179.822 68.096 M301.500 71.500 L 301.500 75.000 309.167 75.000 L 316.833 75.000 316.833 71.500 L 316.833 68.000 309.167 68.000 L 301.500 68.000 301.500 71.500 " stroke="none" fill="#575555" fill-rule="evenodd"></path>
        <path id="path2" d="M79.573 35.718 C 79.265 36.520,79.590 39.251,80.000 39.308 C 80.825 39.422,80.833 39.464,80.833 43.442 C 80.833 47.872,80.886 47.778,79.128 46.457 C 73.058 41.896,72.818 41.761,70.750 41.754 C 68.426 41.747,68.610 41.638,59.888 48.199 C 55.504 51.497,49.912 55.702,47.461 57.544 C 43.455 60.554,42.978 60.963,42.735 61.599 C 42.272 62.813,42.859 63.874,44.246 64.332 C 45.211 64.650,44.802 64.919,54.250 57.751 C 55.717 56.639,58.492 54.538,60.417 53.083 C 62.342 51.628,64.817 49.750,65.917 48.910 C 70.931 45.078,70.369 45.137,74.186 48.034 C 75.321 48.896,77.787 50.764,79.667 52.186 C 81.546 53.607,84.208 55.623,85.583 56.665 C 96.418 64.875,96.026 64.614,97.067 64.295 C 98.074 63.986,98.585 63.295,98.575 62.254 C 98.564 61.102,98.703 61.243,94.417 58.027 C 92.400 56.514,90.695 55.195,90.628 55.096 C 90.560 54.998,90.504 51.449,90.503 47.212 L 90.500 39.506 90.958 39.406 C 91.210 39.351,91.513 39.276,91.631 39.239 C 91.791 39.189,91.833 38.727,91.797 37.378 L 91.750 35.583 85.704 35.540 C 80.788 35.504,79.642 35.537,79.573 35.718 M84.462 43.542 L 84.508 46.333 83.454 46.333 C 81.994 46.333,82.000 46.344,82.000 43.500 C 82.000 40.638,82.003 40.633,83.415 40.701 L 84.417 40.750 84.462 43.542 M88.963 40.807 C 89.124 40.909,89.164 41.584,89.129 43.596 L 89.083 46.250 87.917 46.250 L 86.750 46.250 86.704 43.689 C 86.672 41.942,86.719 41.055,86.849 40.897 C 87.059 40.645,88.603 40.578,88.963 40.807 M68.726 49.701 C 67.731 50.453,64.892 52.599,62.417 54.469 C 59.942 56.338,55.870 59.417,53.369 61.309 C 50.868 63.202,48.243 65.154,47.536 65.647 L 46.250 66.544 46.167 78.064 L 46.083 89.583 45.417 89.636 C 44.046 89.745,43.358 91.165,44.191 92.167 L 44.538 92.583 70.597 92.583 L 96.657 92.583 97.033 92.207 C 97.936 91.305,97.327 89.860,95.966 89.679 L 95.250 89.583 95.164 78.000 C 95.116 71.629,95.060 66.407,95.039 66.394 C 95.017 66.382,94.869 66.336,94.708 66.292 C 94.424 66.214,92.886 65.074,83.833 58.231 C 74.130 50.897,70.709 48.333,70.625 48.333 C 70.576 48.333,69.722 48.949,68.726 49.701 M69.583 69.833 L 69.583 73.917 65.667 73.917 L 61.750 73.917 61.705 70.128 C 61.647 65.191,61.208 65.646,65.962 65.705 L 69.583 65.750 69.583 69.833 M79.238 65.928 C 79.649 66.340,79.681 66.698,79.630 70.417 L 79.583 73.917 75.667 73.917 L 71.750 73.917 71.705 70.003 C 71.681 67.851,71.697 65.995,71.742 65.878 C 71.875 65.531,78.887 65.578,79.238 65.928 M69.583 79.833 L 69.583 83.417 65.962 83.462 C 61.261 83.520,61.667 83.883,61.667 79.611 C 61.667 77.839,61.718 76.338,61.781 76.275 C 61.844 76.212,63.625 76.181,65.739 76.205 L 69.583 76.250 69.583 79.833 M79.566 76.430 C 79.868 77.219,79.667 82.621,79.319 83.064 L 78.971 83.506 75.360 83.462 L 71.750 83.417 71.705 79.792 L 71.660 76.167 75.562 76.167 C 78.967 76.167,79.477 76.200,79.566 76.430 M39.761 95.298 C 34.653 97.294,34.444 104.495,39.422 107.000 L 40.250 107.417 50.858 107.463 C 63.414 107.518,62.000 107.861,62.000 104.758 C 62.000 102.598,62.010 102.536,62.375 102.438 C 62.581 102.383,69.551 102.337,77.864 102.336 C 93.946 102.333,92.923 102.291,96.417 103.101 C 96.967 103.229,98.187 103.489,99.128 103.679 L 100.839 104.025 103.044 103.676 C 104.257 103.485,105.700 103.235,106.250 103.122 L 107.250 102.917 107.298 101.301 C 107.352 99.456,107.345 99.446,105.917 99.254 C 105.458 99.192,104.596 99.041,104.000 98.918 C 100.826 98.261,100.523 98.264,97.917 98.972 C 97.550 99.071,96.453 99.344,95.478 99.577 L 93.707 100.000 78.117 100.000 C 69.543 100.000,62.409 99.954,62.264 99.899 C 62.041 99.814,62.000 99.448,62.000 97.577 C 62.000 94.487,63.360 94.832,51.196 94.840 L 40.917 94.847 39.761 95.298 M57.321 96.911 C 58.393 97.465,58.150 99.125,56.954 99.421 C 56.750 99.471,53.183 99.491,49.027 99.465 L 41.471 99.417 41.069 98.949 C 40.435 98.212,40.579 97.348,41.417 96.868 C 41.966 96.553,56.706 96.592,57.321 96.911 M57.591 103.409 C 58.412 104.231,57.891 105.518,56.644 105.748 C 55.193 106.015,41.749 105.760,41.287 105.456 C 40.468 104.920,40.497 103.639,41.336 103.214 C 41.650 103.055,43.607 103.004,49.466 103.002 L 57.182 103.000 57.591 103.409 " stroke="none" fill="#6d2eec" fill-rule="evenodd"></path>
    </g>
</svg>